<svg width="914" height="400" fill="none" xmlns="http://www.w3.org/2000/svg">
  <path fill="#fff" d="M0 0h914v400H0z"/>
  <path d="M412.465 218.635c-1.287 0-2.37-.212-3.25-.635a5.732 5.732 0 01-2.158-1.93V218h-6.754v-34.48l6.754-3.073v12.899c.575-.762 1.337-1.371 2.285-1.828.948-.474 2.073-.711 3.377-.711 1.591 0 3.055.321 4.392.964 1.354.627 2.522 1.541 3.504 2.743.982 1.185 1.744 2.64 2.285 4.367.559 1.709.838 3.648.838 5.814 0 2.252-.262 4.249-.787 5.993-.525 1.726-1.278 3.182-2.26 4.367a9.657 9.657 0 01-3.554 2.666c-1.388.609-2.946.914-4.672.914zm-.787-6.5c.863 0 1.625-.17 2.285-.508a4.661 4.661 0 001.65-1.498c.457-.66.796-1.447 1.016-2.361.237-.914.355-1.939.355-3.073 0-2.386-.465-4.215-1.396-5.484-.914-1.27-2.218-1.904-3.91-1.904-.576 0-1.109.067-1.6.203a5.078 5.078 0 00-1.32.508c-.39.203-.728.44-1.016.711a3.925 3.925 0 00-.685.761v10.512a5.039 5.039 0 001.853 1.574c.745.373 1.667.559 2.768.559zM427.714 218v-26.584h6.754V218h-6.754zm3.377-29.682a4.008 4.008 0 01-1.548-.304 4.31 4.31 0 01-1.245-.864 4.308 4.308 0 01-.863-1.244 4.014 4.014 0 01-.305-1.549c0-.541.102-1.049.305-1.523.22-.474.508-.889.863-1.244a3.93 3.93 0 011.245-.838 4.009 4.009 0 011.548-.305c.542 0 1.05.102 1.524.305a3.842 3.842 0 012.107 2.082c.203.474.305.982.305 1.523 0 .542-.102 1.058-.305 1.549a3.914 3.914 0 01-.838 1.244 4.192 4.192 0 01-1.269.864 3.83 3.83 0 01-1.524.304zm20.811 30.317c-1.287 0-2.37-.212-3.25-.635-.864-.44-1.583-1.083-2.159-1.93V218h-6.754v-34.48l6.754-3.073v12.899c.576-.762 1.338-1.371 2.286-1.828.947-.474 2.073-.711 3.376-.711 1.592 0 3.056.321 4.393.964 1.354.627 2.522 1.541 3.504 2.743.982 1.185 1.743 2.64 2.285 4.367.559 1.709.838 3.648.838 5.814 0 2.252-.262 4.249-.787 5.993-.525 1.726-1.278 3.182-2.26 4.367a9.668 9.668 0 01-3.555 2.666c-1.388.609-2.945.914-4.671.914zm-.788-6.5c.864 0 1.625-.17 2.286-.508a4.661 4.661 0 001.65-1.498c.457-.66.796-1.447 1.016-2.361.237-.914.355-1.939.355-3.073 0-2.386-.465-4.215-1.396-5.484-.914-1.27-2.218-1.904-3.911-1.904-.575 0-1.108.067-1.599.203a5.078 5.078 0 00-1.32.508c-.39.203-.728.44-1.016.711a3.966 3.966 0 00-.686.761v10.512a5.042 5.042 0 001.854 1.574c.745.373 1.667.559 2.767.559zm26.904 6.5c-1.879 0-3.571-.313-5.078-.94a10.853 10.853 0 01-3.859-2.742c-1.05-1.202-1.862-2.657-2.438-4.367-.575-1.727-.863-3.673-.863-5.84s.288-4.113.863-5.84c.576-1.726 1.388-3.191 2.438-4.392a10.462 10.462 0 013.859-2.743c1.507-.643 3.199-.964 5.078-.964 1.879 0 3.572.321 5.078.964a10.228 10.228 0 013.834 2.743c1.067 1.201 1.879 2.666 2.438 4.392.576 1.727.863 3.673.863 5.84s-.287 4.113-.863 5.84c-.559 1.71-1.371 3.165-2.438 4.367a10.603 10.603 0 01-3.834 2.742c-1.506.627-3.199.94-5.078.94zm0-6.5c.847 0 1.608-.17 2.286-.508a4.67 4.67 0 001.701-1.447c.474-.644.838-1.422 1.091-2.336.254-.914.381-1.947.381-3.098 0-1.168-.127-2.209-.381-3.123-.253-.914-.617-1.693-1.091-2.336a4.584 4.584 0 00-1.701-1.473c-.678-.338-1.439-.507-2.286-.507-.846 0-1.608.169-2.285.507a4.795 4.795 0 00-1.726 1.473c-.457.643-.813 1.422-1.067 2.336-.254.914-.381 1.955-.381 3.123 0 1.151.127 2.184.381 3.098.254.914.61 1.692 1.067 2.336a4.892 4.892 0 001.726 1.447c.677.338 1.439.508 2.285.508zm28.555 6.5c-1.304 0-2.429-.237-3.377-.711s-1.71-1.092-2.285-1.854v9.268l-6.754 3.072v-36.994h6.754v1.93c.575-.762 1.337-1.371 2.285-1.828.965-.474 2.107-.711 3.427-.711 1.642 0 3.14.304 4.495.914a9.207 9.207 0 013.453 2.691c.965 1.168 1.709 2.624 2.234 4.367.525 1.727.787 3.716.787 5.967 0 2.167-.279 4.113-.838 5.84-.541 1.71-1.303 3.165-2.285 4.367a10.18 10.18 0 01-3.504 2.742c-1.337.627-2.801.94-4.392.94zm-1.041-6.5c1.692 0 2.996-.635 3.91-1.905.931-1.286 1.396-3.114 1.396-5.484 0-1.134-.118-2.158-.355-3.072-.22-.914-.559-1.693-1.016-2.336a4.652 4.652 0 00-1.65-1.498c-.66-.356-1.422-.533-2.285-.533-1.101 0-2.023.186-2.768.558a5.04 5.04 0 00-1.853 1.574v10.512c.169.254.397.516.685.787.288.254.626.491 1.016.711.389.203.829.373 1.32.508a6.783 6.783 0 001.6.178z" fill="#6C9"/>
</svg>
